<svg width="40" height="40" viewBox="0 0 40 40" fill="none" xmlns="http://www.w3.org/2000/svg">
<path d="M27.5 18.333C27.5 24.1663 20 29.1663 20 29.1663C20 29.1663 12.5 24.1663 12.5 18.333C12.5 16.3439 13.2902 14.4362 14.6967 13.0297C16.1032 11.6232 18.0109 10.833 20 10.833C21.9891 10.833 23.8968 11.6232 25.3033 13.0297C26.7098 14.4362 27.5 16.3439 27.5 18.333Z" stroke="#101828" stroke-width="1.66667" stroke-linecap="round" stroke-linejoin="round"/>
<path d="M20 20.833C21.3807 20.833 22.5 19.7137 22.5 18.333C22.5 16.9523 21.3807 15.833 20 15.833C18.6193 15.833 17.5 16.9523 17.5 18.333C17.5 19.7137 18.6193 20.833 20 20.833Z" stroke="#101828" stroke-width="1.66667" stroke-linecap="round" stroke-linejoin="round"/>
</svg>
